<?xml version="1.0" standalone="no"?>
<!DOCTYPE svg PUBLIC "-//W3C//DTD SVG 20010904//EN"
 "http://www.w3.org/TR/2001/REC-SVG-20010904/DTD/svg10.dtd">
<svg version="1.0" xmlns="http://www.w3.org/2000/svg"
 width="512.000000pt" height="512.000000pt" viewBox="0 0 512.000000 512.000000"
 preserveAspectRatio="xMidYMid meet">

<g transform="translate(0.000000,512.000000) scale(0.100000,-0.100000)"
fill="#000000" stroke="none">
<path d="M2635 5114 c-355 -35 -558 -91 -845 -234 -238 -118 -411 -242 -575
-412 -244 -251 -378 -532 -445 -928 -28 -171 -40 -315 -50 -611 l-9 -266 -172
-239 c-233 -323 -229 -316 -229 -385 0 -71 19 -118 73 -176 32 -35 116 -101
175 -139 1 -1 7 -30 13 -65 6 -35 22 -90 36 -121 23 -52 24 -62 14 -102 -26
-105 -5 -223 51 -283 17 -18 21 -38 24 -128 11 -275 101 -458 265 -537 106
-51 199 -59 395 -34 161 21 393 41 400 34 3 -4 10 -88 15 -189 10 -184 17
-216 56 -251 51 -47 16 -46 1218 -36 622 5 1154 11 1184 14 44 5 61 12 95 44
40 38 41 40 41 108 0 65 -2 71 -42 123 -98 127 -168 279 -205 443 -39 174 -23
425 34 532 13 24 73 116 133 206 351 522 525 1040 525 1568 0 349 -63 625
-209 925 -292 595 -889 1027 -1548 1119 -112 16 -348 27 -418 20z m346 -329
c595 -79 1087 -431 1340 -959 103 -216 150 -392 171 -644 35 -425 -90 -900
-353 -1349 -63 -106 -155 -244 -221 -332 -81 -107 -138 -328 -138 -535 0 -173
44 -386 115 -549 22 -52 29 -79 22 -82 -7 -2 -422 -6 -923 -10 l-911 -7 -8
184 c-5 142 -11 192 -25 224 -19 45 -62 81 -107 90 -33 6 -357 -19 -553 -43
-74 -9 -167 -17 -207 -17 -66 -1 -74 1 -102 28 -51 49 -64 101 -68 286 -2 91
-9 178 -15 193 -6 15 -26 41 -46 57 l-34 28 31 55 c23 40 31 67 31 101 0 56
-10 76 -63 135 l-40 43 7 74 c11 118 -3 138 -157 235 l-78 49 45 63 c241 333
311 434 322 465 9 25 13 95 14 217 2 763 109 1154 399 1458 220 231 589 435
926 513 189 43 435 55 626 29z"/>
<path d="M2587 4366 c-515 -91 -904 -473 -1004 -986 -24 -122 -21 -337 5 -460
39 -182 110 -342 215 -483 316 -427 863 -600 1365 -432 705 236 1035 1038 702
1704 -166 331 -471 566 -842 647 -100 22 -341 27 -441 10z m428 -331 c263 -73
495 -275 597 -516 149 -356 73 -741 -202 -1009 -140 -136 -333 -228 -530 -250
-400 -46 -794 194 -940 572 -107 275 -72 582 94 832 123 185 305 312 531 372
81 22 106 24 240 20 98 -3 171 -10 210 -21z"/>
<path d="M2740 3778 c-19 -5 -46 -19 -58 -31 -48 -44 -52 -65 -52 -252 l0
-175 -157 0 c-87 0 -176 -5 -198 -11 -78 -21 -120 -82 -113 -164 5 -62 29 -98
84 -125 36 -18 60 -20 212 -20 l171 0 3 -189 3 -190 35 -36 c62 -64 144 -69
215 -13 48 37 55 71 55 257 l0 169 183 4 184 3 37 29 c67 51 84 129 43 200
-40 72 -67 81 -269 84 l-178 4 0 171 c0 159 -2 175 -23 211 -36 64 -108 94
-177 74z"/>
</g>
</svg>
